<svg xmlns="http://www.w3.org/2000/svg" width="26.997" height="36" viewBox="0 0 26.997 36">
  <path id="baby" d="M13.5,11.25A5.625,5.625,0,1,0,7.875,5.625,5.623,5.623,0,0,0,13.5,11.25ZM9.745,28.744l1.8-2.25-4.324-3.6L3.994,26.93a2.818,2.818,0,0,0-.056,3.445l3.375,4.5a2.813,2.813,0,1,0,4.5-3.375Zm10.034-5.85-4.324,3.6,1.8,2.25L15.188,31.5a2.813,2.813,0,0,0,4.5,3.375l3.375-4.5a2.818,2.818,0,0,0-.056-3.445l-3.227-4.036Zm6.708-12.7a2.816,2.816,0,0,0-3.916-.689l-2.855,2a10.876,10.876,0,0,1-12.431,0l-2.855-2a2.811,2.811,0,0,0-3.234,4.6l2.855,2a16.684,16.684,0,0,0,3.825,1.962V20.25h11.25V18.084a16.684,16.684,0,0,0,3.825-1.962l2.855-2A2.818,2.818,0,0,0,26.487,10.2Z" transform="translate(-0.003)" fill="#e8ffdc"/>
</svg>
