<svg xmlns="http://www.w3.org/2000/svg" width="30.894" height="30.849" viewBox="0 0 30.894 30.849">
  <path id="bell" d="M33.464,26.028c0-8.676-7.712-6.748-7.712-13.5a6.173,6.173,0,0,0-.152-1.444,8.361,8.361,0,0,0-5.717-6.97,1.715,1.715,0,0,0,.04-.368,1.931,1.931,0,0,0-3.856,0,1.718,1.718,0,0,0,.04.368,8.529,8.529,0,0,0-5.822,8.238c0,.058,0,.116,0,.176,0,6.748-7.712,4.82-7.712,13.5,0,2.3,5.139,4.217,12.019,4.7a3.856,3.856,0,0,0,6.81,0c6.88-.485,12.019-2.406,12.019-4.7,0-.007,0-.014,0-.021l.046.021Zm-6,1.63a32.943,32.943,0,0,1-5.626.923,3.855,3.855,0,0,0-7.681,0,32.944,32.944,0,0,1-5.626-.923,9.445,9.445,0,0,1-3.717-1.63A9.445,9.445,0,0,1,8.528,24.4a38.19,38.19,0,0,1,9.467-1.082A38.19,38.19,0,0,1,27.462,24.4a9.445,9.445,0,0,1,3.717,1.63,9.445,9.445,0,0,1-3.717,1.63Z" transform="translate(-2.571 -1.928)" fill="#e8ffdc"/>
</svg>
