<svg xmlns="http://www.w3.org/2000/svg" width="26.937" height="26.306" viewBox="0 0 26.937 26.306">
  <path id="injection" d="M25.861,10.8a.931.931,0,0,1,0,1.318l-.66.659.66.659a1.865,1.865,0,0,1,0,2.637l-9.886,9.884a1.863,1.863,0,0,1-2.637,0l-.659-.659-2.636,2.638,1.318,1.318a.932.932,0,0,1-1.318,1.318L4.771,25.3a.932.932,0,0,1,1.318-1.318L7.406,25.3l2.637-2.636-.659-.659a1.862,1.862,0,0,1,0-2.636L19.27,9.485a1.862,1.862,0,0,1,2.636,0l.659.659.659-.659a.931.931,0,0,1,1.318,0l.33.33,5.273-5.273V5.859l-4.614,4.614.33.331Zm-4.614-.659a.931.931,0,0,0-1.318,0l-1.977,1.977,1.318,1.318-.659.659-1.318-1.318-1.977,1.977,1.318,1.319-.659.659-1.319-1.319L14,16.077l2.637,2.636-.659.659-2.637-2.636-1.975,1.975L14,21.347l-.659.659L10.7,19.371l-.659.659a.931.931,0,0,0,0,1.318L14,25.3a.93.93,0,0,0,1.319,0L25.2,15.418a.929.929,0,0,0,0-1.318l-3.953-3.955Zm-2.636,1.318.659-.659,2.636,2.636-.659.659Zm0,5.272L15.976,14.1l.659-.659,2.636,2.637Zm-6.591,1.319.659-.659L14,18.712l-.659.659Zm19.414-7.077a1.265,1.265,0,0,1-2.531,0,9.006,9.006,0,0,1,1.266-2.611A9.021,9.021,0,0,1,31.435,10.976Z" transform="translate(-4.498 -4.541)" fill="#e8ffdc"/>
</svg>
