<svg xmlns="http://www.w3.org/2000/svg" width="36.001" height="36" viewBox="0 0 36.001 36">
  <path id="pen" d="M35.011,5.215,30.785.989a3.377,3.377,0,0,0-4.775,0L22.034,4.965l9,9L35.011,9.99a3.377,3.377,0,0,0,0-4.775ZM17.658,3.772a2.812,2.812,0,0,0-3.977,0L5.33,12.124a1.124,1.124,0,0,0,0,1.59l1.591,1.591a1.125,1.125,0,0,0,1.591,0l7.159-7.159,1.591,1.59L6.606,20.393A23,23,0,0,0,.012,34.109l0,.016a1.688,1.688,0,0,0,1.863,1.864,22.994,22.994,0,0,0,13.735-6.6L29.444,15.557l-5.82-5.82L17.658,3.772Z" transform="translate(0.001 0)" fill="#e8ffdc"/>
</svg>
